<?xml version="1.0" encoding="utf-8"?>
<!-- Generator: Adobe Illustrator 15.1.0, SVG Export Plug-In . SVG Version: 6.00 Build 0)  -->
<!DOCTYPE svg PUBLIC "-//W3C//DTD SVG 1.1//EN" "http://www.w3.org/Graphics/SVG/1.1/DTD/svg11.dtd">
<svg version="1.1" id="Layer_1" xmlns="http://www.w3.org/2000/svg" xmlns:xlink="http://www.w3.org/1999/xlink" x="0px" y="0px"
	 width="123px" height="123px" viewBox="0 0 123 123" enable-background="new 0 0 123 123" xml:space="preserve">
<g>
	<path fill="#F9F9F9" d="M7.737,9.395H3.668V6.534h11.579v2.861h-4.113v12.206H7.737V9.395z"/>
	<path fill="#F9F9F9" d="M17.061,6.735c1.095-0.179,2.705-0.313,4.538-0.313c2.235,0,3.8,0.335,4.873,1.185
		c0.917,0.715,1.409,1.788,1.409,3.174c0,1.9-1.364,3.219-2.66,3.688v0.067c1.05,0.425,1.632,1.408,2.012,2.794
		c0.469,1.721,0.917,3.688,1.207,4.27h-3.487c-0.223-0.447-0.604-1.654-1.028-3.51c-0.424-1.9-1.073-2.392-2.481-2.414h-1.006v5.924
		h-3.375V6.735z M20.437,13.218h1.341c1.699,0,2.705-0.85,2.705-2.168c0-1.363-0.939-2.079-2.504-2.079
		c-0.827,0-1.296,0.044-1.542,0.111V13.218z"/>
	<path fill="#F9F9F9" d="M34.03,17.733l-1.073,3.867h-3.51L34.03,6.534h4.471l4.695,15.067h-3.688l-1.163-3.867H34.03z
		 M37.853,15.185l-0.939-3.197c-0.268-0.894-0.537-2.012-0.76-2.906h-0.044c-0.224,0.895-0.447,2.035-0.693,2.906l-0.895,3.197
		H37.853z"/>
	<path fill="#F9F9F9" d="M45.188,6.735c1.05-0.179,2.526-0.313,4.604-0.313c2.102,0,3.599,0.402,4.605,1.207
		c0.984,0.76,1.61,2.012,1.61,3.487c0,1.475-0.47,2.75-1.386,3.577c-1.162,1.073-2.884,1.587-4.896,1.587
		c-0.447,0-0.85-0.022-1.162-0.089v5.41h-3.375V6.735z M48.564,13.576c0.291,0.067,0.625,0.089,1.14,0.089
		c1.811,0,2.929-0.917,2.929-2.437c0-1.386-0.961-2.213-2.683-2.213c-0.67,0-1.14,0.045-1.386,0.112V13.576z"/>
	<path fill="#F9F9F9" d="M67.143,15.229h-5.544v3.577h6.192v2.794h-9.59V6.534h9.277v2.794h-5.879v3.129h5.544V15.229z"/>
	<path fill="#F9F9F9" d="M69.18,19.768L76.355,9.44V9.351h-6.528V6.534h10.931v1.967L73.74,18.694v0.09h7.131v2.816H69.18V19.768z"
		/>
	<path fill="#F9F9F9" d="M96.321,13.911c0,4.963-2.973,7.936-7.399,7.936c-4.448,0-7.086-3.375-7.086-7.69
		c0-4.516,2.906-7.891,7.333-7.891C93.794,6.266,96.321,9.73,96.321,13.911z M85.434,14.09c0,2.973,1.386,5.052,3.666,5.052
		c2.303,0,3.622-2.19,3.622-5.119c0-2.727-1.274-5.052-3.622-5.052C86.775,8.971,85.434,11.161,85.434,14.09z"/>
	<path fill="#F9F9F9" d="M101.979,6.534v15.067h-3.398V6.534H101.979z"/>
	<path fill="#F9F9F9" d="M104.932,6.757c1.251-0.201,2.883-0.335,4.583-0.335c2.883,0,4.761,0.536,6.192,1.609
		c1.565,1.162,2.548,3.018,2.548,5.678c0,2.884-1.051,4.874-2.481,6.103c-1.587,1.319-4.023,1.944-6.974,1.944
		c-1.766,0-3.041-0.111-3.867-0.223V6.757z M108.329,19.03c0.291,0.067,0.783,0.067,1.185,0.067
		c3.107,0.022,5.141-1.676,5.141-5.275c0-3.129-1.833-4.784-4.784-4.784c-0.738,0-1.252,0.067-1.542,0.134V19.03z"/>
</g>
<g>
	<path fill="#F9F9F9" d="M7.3,26.097c2.404-0.42,7.211-0.841,11.837-0.841c5.588,0,9.014,0.541,12.018,2.283
		c2.824,1.502,4.807,4.266,4.807,7.992c0,3.545-2.103,6.85-6.67,8.593v0.12c4.627,1.202,8.052,4.747,8.052,9.915
		c0,3.726-1.682,6.609-4.206,8.653c-2.944,2.343-7.872,3.665-15.924,3.665c-4.506,0-7.872-0.3-9.915-0.601V26.097z M16.374,41.601
		h3.004c4.867,0,7.391-1.983,7.391-4.988c0-3.064-2.343-4.687-6.489-4.687c-2.043,0-3.185,0.121-3.906,0.241V41.601z M16.374,59.567
		c0.901,0.12,1.983,0.12,3.545,0.12c4.146,0,7.812-1.622,7.812-5.889c0-4.026-3.665-5.648-8.232-5.648h-3.125V59.567z"/>
	<path fill="#F9F9F9" d="M80.669,45.386c0,13.34-7.992,21.332-19.89,21.332c-11.958,0-19.048-9.074-19.048-20.671
		c0-12.138,7.812-21.211,19.709-21.211C73.879,24.835,80.669,34.149,80.669,45.386z M51.405,45.867c0,7.992,3.726,13.58,9.854,13.58
		c6.189,0,9.735-5.889,9.735-13.76c0-7.331-3.425-13.58-9.735-13.58C55.011,32.106,51.405,37.995,51.405,45.867z"/>
	<path fill="#F9F9F9" d="M106.027,66.057l-3.665-7.331c-1.502-2.824-2.464-4.927-3.605-7.271h-0.12
		c-0.841,2.343-1.863,4.446-3.185,7.271l-3.305,7.331H81.691l11.717-20.49l-11.297-20.01h10.516l3.545,7.391
		c1.202,2.463,2.103,4.446,3.064,6.73h0.12c0.961-2.584,1.743-4.387,2.764-6.73l3.425-7.391h10.456l-11.417,19.769l12.018,20.731
		H106.027z"/>
</g>
<g>
	<path fill="#F9F9F9" d="M8.058,108.002c1.849,1.027,6.095,2.739,10.341,2.739c5.41,0,8.149-2.603,8.149-5.89
		c0-4.451-4.383-6.437-8.971-6.437h-4.246V90.95h4.109c3.492,0,7.875-1.369,7.875-5.136c0-2.671-2.123-4.657-6.574-4.657
		c-3.629,0-7.464,1.575-9.245,2.67l-2.123-7.533c2.67-1.712,7.944-3.355,13.765-3.355c9.451,0,14.724,4.999,14.724,11.094
		c0,4.725-2.671,8.492-8.149,10.341v0.137c5.341,0.958,9.656,4.999,9.656,10.888c0,7.807-6.917,13.56-18.216,13.56
		c-5.752,0-10.615-1.507-13.217-3.082L8.058,108.002z"/>
	<path fill="#F9F9F9" d="M72.632,81.089c-1.164-0.068-2.397,0-4.041,0.137c-9.245,0.753-13.354,5.479-14.518,10.615h0.205
		c2.191-2.191,5.342-3.493,9.451-3.493c7.464,0,13.765,5.273,13.765,14.518c0,8.834-6.78,16.093-16.367,16.093
		c-11.916,0-17.737-8.834-17.737-19.449c0-8.355,3.082-15.34,7.944-19.86c4.383-4.041,10.204-6.163,17.12-6.505
		c1.917-0.206,3.219-0.137,4.177-0.069V81.089z M66.948,103.414c0-4.109-2.191-7.67-6.643-7.67c-2.808,0-5.136,1.712-6.095,3.903
		c-0.342,0.616-0.479,1.438-0.479,2.671c0.206,4.725,2.465,8.971,7.259,8.971C64.62,111.29,66.948,107.934,66.948,103.414z"/>
	<path fill="#F9F9F9" d="M115.087,95.744c0,13.696-5.547,23.215-16.847,23.215c-11.505,0-16.572-10.341-16.641-22.941
		c0-12.943,5.41-23.078,16.915-23.078C110.361,72.94,115.087,83.555,115.087,95.744z M92.008,96.018
		c0,10.204,2.465,15.066,6.438,15.066c4.041,0,6.232-5.067,6.232-15.203c0-9.861-2.123-15.065-6.301-15.065
		C94.611,80.815,92.008,85.609,92.008,96.018z"/>
</g>
</svg>
